<svg width="179" height="60" viewBox="0 0 179 60" fill="none" xmlns="http://www.w3.org/2000/svg">
<g id="RetrieveMyinfo_Button/Stacked/Neutral">
<path d="M0 8C0 3.58172 3.58172 0 8 0H171C175.418 0 179 3.58172 179 8V52C179 56.4183 175.418 60 171 60H8C3.58173 60 0 56.4183 0 52V8Z" fill="white"/>
<path id="Perform some action" d="M21.36 16.274V18.722H16.14V21.512H20.172V23.852H16.14V29H13.062V16.274H21.36ZM26.7569 18.83C27.5249 18.83 28.1849 19.004 28.7369 19.352C29.2889 19.7 29.6969 20.174 29.9609 20.774V18.956H33.0209V29H29.9609V27.182C29.6969 27.782 29.2889 28.256 28.7369 28.604C28.1849 28.952 27.5249 29.126 26.7569 29.126C25.9289 29.126 25.1849 28.922 24.5249 28.514C23.8769 28.094 23.3609 27.494 22.9769 26.714C22.6049 25.934 22.4189 25.022 22.4189 23.978C22.4189 22.922 22.6049 22.01 22.9769 21.242C23.3609 20.462 23.8769 19.868 24.5249 19.46C25.1849 19.04 25.9289 18.83 26.7569 18.83ZM27.7469 21.53C27.0869 21.53 26.5529 21.746 26.1449 22.178C25.7489 22.61 25.5509 23.21 25.5509 23.978C25.5509 24.746 25.7489 25.346 26.1449 25.778C26.5529 26.21 27.0869 26.426 27.7469 26.426C28.3949 26.426 28.9229 26.204 29.3309 25.76C29.7509 25.316 29.9609 24.722 29.9609 23.978C29.9609 23.222 29.7509 22.628 29.3309 22.196C28.9229 21.752 28.3949 21.53 27.7469 21.53ZM39.6761 18.83C40.9721 18.83 42.0581 19.19 42.9341 19.91C43.8101 20.618 44.3621 21.596 44.5901 22.844H41.3321C41.2361 22.412 41.0381 22.076 40.7381 21.836C40.4381 21.596 40.0601 21.476 39.6041 21.476C39.0641 21.476 38.6201 21.692 38.2721 22.124C37.9241 22.544 37.7501 23.162 37.7501 23.978C37.7501 24.794 37.9241 25.418 38.2721 25.85C38.6201 26.27 39.0641 26.48 39.6041 26.48C40.0601 26.48 40.4381 26.36 40.7381 26.12C41.0381 25.88 41.2361 25.544 41.3321 25.112H44.5901C44.3621 26.36 43.8101 27.344 42.9341 28.064C42.0581 28.772 40.9721 29.126 39.6761 29.126C38.6921 29.126 37.8161 28.922 37.0481 28.514C36.2921 28.094 35.6981 27.494 35.2661 26.714C34.8341 25.934 34.6181 25.022 34.6181 23.978C34.6181 22.922 34.8281 22.01 35.2481 21.242C35.6801 20.462 36.2801 19.868 37.0481 19.46C37.8161 19.04 38.6921 18.83 39.6761 18.83ZM55.7368 23.708C55.7368 23.96 55.7068 24.236 55.6468 24.536H48.6808C48.7168 25.292 48.9088 25.838 49.2568 26.174C49.6048 26.498 50.0488 26.66 50.5888 26.66C51.0448 26.66 51.4228 26.546 51.7228 26.318C52.0228 26.09 52.2208 25.796 52.3168 25.436H55.5748C55.4428 26.144 55.1548 26.78 54.7108 27.344C54.2668 27.896 53.7028 28.334 53.0188 28.658C52.3348 28.97 51.5728 29.126 50.7328 29.126C49.7488 29.126 48.8728 28.922 48.1048 28.514C47.3488 28.094 46.7548 27.494 46.3228 26.714C45.8908 25.934 45.6748 25.022 45.6748 23.978C45.6748 22.922 45.8848 22.01 46.3048 21.242C46.7368 20.462 47.3368 19.868 48.1048 19.46C48.8728 19.04 49.7488 18.83 50.7328 18.83C51.7288 18.83 52.6048 19.034 53.3608 19.442C54.1168 19.85 54.6988 20.426 55.1068 21.17C55.5268 21.902 55.7368 22.748 55.7368 23.708ZM52.6228 23.24C52.6348 22.58 52.4548 22.088 52.0828 21.764C51.7228 21.428 51.2728 21.26 50.7328 21.26C50.1688 21.26 49.7008 21.428 49.3288 21.764C48.9568 22.1 48.7468 22.592 48.6988 23.24H52.6228ZM65.5888 25.994L67.7668 18.956H71.0428L67.4788 29H63.6628L60.0988 18.956H63.3748L65.5888 25.994ZM81.8579 23.708C81.8579 23.96 81.8279 24.236 81.7679 24.536H74.8019C74.8379 25.292 75.0299 25.838 75.3779 26.174C75.7259 26.498 76.1699 26.66 76.7099 26.66C77.1659 26.66 77.5439 26.546 77.8439 26.318C78.1439 26.09 78.3419 25.796 78.4379 25.436H81.6959C81.5639 26.144 81.2759 26.78 80.8319 27.344C80.3879 27.896 79.8239 28.334 79.1399 28.658C78.4559 28.97 77.6939 29.126 76.8539 29.126C75.8699 29.126 74.9939 28.922 74.2259 28.514C73.4699 28.094 72.8759 27.494 72.4439 26.714C72.0119 25.934 71.7959 25.022 71.7959 23.978C71.7959 22.922 72.0059 22.01 72.4259 21.242C72.8579 20.462 73.4579 19.868 74.2259 19.46C74.9939 19.04 75.8699 18.83 76.8539 18.83C77.8499 18.83 78.7259 19.034 79.4819 19.442C80.2379 19.85 80.8199 20.426 81.2279 21.17C81.6479 21.902 81.8579 22.748 81.8579 23.708ZM78.7439 23.24C78.7559 22.58 78.5759 22.088 78.2039 21.764C77.8439 21.428 77.3939 21.26 76.8539 21.26C76.2899 21.26 75.8219 21.428 75.4499 21.764C75.0779 22.1 74.8679 22.592 74.8199 23.24H78.7439ZM86.5404 20.846C86.9244 20.234 87.4164 19.748 88.0164 19.388C88.6284 19.028 89.2884 18.848 89.9964 18.848V22.142H89.1144C88.2984 22.142 87.6624 22.316 87.2064 22.664C86.7624 23.012 86.5404 23.6 86.5404 24.428V29H83.4624V18.956H86.5404V20.846ZM90.9967 16.13C90.9967 15.662 91.1647 15.278 91.5007 14.978C91.8367 14.666 92.2807 14.51 92.8327 14.51C93.3847 14.51 93.8287 14.666 94.1647 14.978C94.5007 15.278 94.6687 15.662 94.6687 16.13C94.6687 16.586 94.5007 16.97 94.1647 17.282C93.8287 17.582 93.3847 17.732 92.8327 17.732C92.2807 17.732 91.8367 17.582 91.5007 17.282C91.1647 16.97 90.9967 16.586 90.9967 16.13ZM94.3627 18.956V29H91.2847V18.956H94.3627ZM101.42 17.588C100.916 17.588 100.55 17.696 100.322 17.912C100.094 18.128 99.9678 18.476 99.9438 18.956H101.762V21.548H99.9438V29H96.8658V21.548H95.6598V18.956H96.8658V18.848C96.8658 17.6 97.2258 16.64 97.9458 15.968C98.6778 15.284 99.7338 14.942 101.114 14.942C101.402 14.942 101.618 14.948 101.762 14.96V17.606L101.42 17.588ZM102.827 16.13C102.827 15.662 102.995 15.278 103.331 14.978C103.667 14.666 104.111 14.51 104.663 14.51C105.215 14.51 105.659 14.666 105.995 14.978C106.331 15.278 106.499 15.662 106.499 16.13C106.499 16.586 106.331 16.97 105.995 17.282C105.659 17.582 105.215 17.732 104.663 17.732C104.111 17.732 103.667 17.582 103.331 17.282C102.995 16.97 102.827 16.586 102.827 16.13ZM106.193 18.956V29H103.115V18.956H106.193ZM112.854 18.83C114.15 18.83 115.236 19.19 116.112 19.91C116.988 20.618 117.54 21.596 117.768 22.844H114.51C114.414 22.412 114.216 22.076 113.916 21.836C113.616 21.596 113.238 21.476 112.782 21.476C112.242 21.476 111.798 21.692 111.45 22.124C111.102 22.544 110.928 23.162 110.928 23.978C110.928 24.794 111.102 25.418 111.45 25.85C111.798 26.27 112.242 26.48 112.782 26.48C113.238 26.48 113.616 26.36 113.916 26.12C114.216 25.88 114.414 25.544 114.51 25.112H117.768C117.54 26.36 116.988 27.344 116.112 28.064C115.236 28.772 114.15 29.126 112.854 29.126C111.87 29.126 110.994 28.922 110.226 28.514C109.47 28.094 108.876 27.494 108.444 26.714C108.012 25.934 107.796 25.022 107.796 23.978C107.796 22.922 108.006 22.01 108.426 21.242C108.858 20.462 109.458 19.868 110.226 19.46C110.994 19.04 111.87 18.83 112.854 18.83ZM123.191 18.83C123.959 18.83 124.619 19.004 125.171 19.352C125.723 19.7 126.131 20.174 126.395 20.774V18.956H129.455V29H126.395V27.182C126.131 27.782 125.723 28.256 125.171 28.604C124.619 28.952 123.959 29.126 123.191 29.126C122.363 29.126 121.619 28.922 120.958 28.514C120.311 28.094 119.795 27.494 119.411 26.714C119.039 25.934 118.853 25.022 118.853 23.978C118.853 22.922 119.039 22.01 119.411 21.242C119.795 20.462 120.311 19.868 120.958 19.46C121.619 19.04 122.363 18.83 123.191 18.83ZM124.181 21.53C123.521 21.53 122.987 21.746 122.579 22.178C122.183 22.61 121.985 23.21 121.985 23.978C121.985 24.746 122.183 25.346 122.579 25.778C122.987 26.21 123.521 26.426 124.181 26.426C124.829 26.426 125.357 26.204 125.765 25.76C126.185 25.316 126.395 24.722 126.395 23.978C126.395 23.222 126.185 22.628 125.765 22.196C125.357 21.752 124.829 21.53 124.181 21.53ZM137.262 26.354V29H135.876C134.7 29 133.782 28.712 133.122 28.136C132.474 27.548 132.15 26.582 132.15 25.238V21.548H130.8V18.956H132.15V16.49H135.228V18.956H137.244V21.548H135.228V25.292C135.228 25.688 135.306 25.964 135.462 26.12C135.63 26.276 135.906 26.354 136.29 26.354H137.262ZM138.704 16.13C138.704 15.662 138.872 15.278 139.208 14.978C139.544 14.666 139.988 14.51 140.54 14.51C141.092 14.51 141.536 14.666 141.872 14.978C142.208 15.278 142.376 15.662 142.376 16.13C142.376 16.586 142.208 16.97 141.872 17.282C141.536 17.582 141.092 17.732 140.54 17.732C139.988 17.732 139.544 17.582 139.208 17.282C138.872 16.97 138.704 16.586 138.704 16.13ZM142.07 18.956V29H138.992V18.956H142.07ZM148.893 18.83C149.889 18.83 150.777 19.04 151.557 19.46C152.349 19.868 152.967 20.462 153.411 21.242C153.867 22.022 154.095 22.934 154.095 23.978C154.095 25.022 153.867 25.934 153.411 26.714C152.967 27.494 152.349 28.094 151.557 28.514C150.777 28.922 149.889 29.126 148.893 29.126C147.897 29.126 147.003 28.922 146.211 28.514C145.419 28.094 144.795 27.494 144.339 26.714C143.895 25.934 143.673 25.022 143.673 23.978C143.673 22.934 143.895 22.022 144.339 21.242C144.795 20.462 145.419 19.868 146.211 19.46C147.003 19.04 147.897 18.83 148.893 18.83ZM148.893 21.494C148.305 21.494 147.807 21.71 147.399 22.142C147.003 22.562 146.805 23.174 146.805 23.978C146.805 24.782 147.003 25.394 147.399 25.814C147.807 26.234 148.305 26.444 148.893 26.444C149.481 26.444 149.973 26.234 150.369 25.814C150.765 25.394 150.963 24.782 150.963 23.978C150.963 23.174 150.765 22.562 150.369 22.142C149.973 21.71 149.481 21.494 148.893 21.494ZM162.063 18.848C163.215 18.848 164.127 19.232 164.799 20C165.483 20.768 165.825 21.824 165.825 23.168V29H162.747V23.528C162.747 22.856 162.567 22.334 162.207 21.962C161.859 21.578 161.391 21.386 160.803 21.386C160.179 21.386 159.681 21.584 159.309 21.98C158.949 22.376 158.769 22.94 158.769 23.672V29H155.691V18.956H158.769V20.792C159.057 20.192 159.483 19.718 160.047 19.37C160.623 19.022 161.295 18.848 162.063 18.848Z" fill="black"/>
<g id="Frame 8">
<g id="Frame 5">
<g id="Group 796">
<path id="Vector" d="M39.846 44.1422C41.4255 44.1422 42.386 43.3169 42.386 42.0077C42.386 41.1113 41.8382 40.4994 40.7069 40.2504L39.597 40.0013C39.1772 39.9017 38.9566 39.7665 38.9566 39.5175C38.9566 39.2685 39.163 39.112 39.6681 39.112C40.2537 39.1324 40.8132 39.3592 41.2476 39.7523L42.1797 38.3862C41.4464 37.8733 40.5615 37.6226 39.6681 37.6747C38.1882 37.6747 37.1921 38.3862 37.1921 39.6456C37.1824 40.0926 37.3407 40.527 37.6358 40.863C37.9309 41.1989 38.3413 41.4119 38.7859 41.4599L39.8887 41.7231C40.4365 41.8441 40.6002 42.0078 40.6002 42.2212C40.6002 42.4346 40.3796 42.641 39.8887 42.641C39.1929 42.6273 38.5226 42.3763 37.989 41.9295L37 43.2529C37.8142 43.8756 38.8221 44.1906 39.846 44.1422V44.1422Z" fill="#F4333D"/>
<path id="Vector_2" d="M44.2283 39.7733C44.4425 39.7733 44.6519 39.7097 44.8299 39.5905C45.0079 39.4714 45.1465 39.3021 45.2281 39.104C45.3098 38.906 45.3308 38.6882 45.2884 38.4782C45.2461 38.2682 45.1424 38.0756 44.9905 37.9246C44.8385 37.7736 44.6451 37.6712 44.4349 37.6303C44.2246 37.5893 44.007 37.6118 43.8095 37.6947C43.612 37.7777 43.4436 37.9174 43.3256 38.0962C43.2076 38.275 43.1454 38.4847 43.1468 38.6989C43.1449 38.8412 43.1716 38.9823 43.2253 39.114C43.2791 39.2457 43.3588 39.3652 43.4597 39.4655C43.5606 39.5657 43.6807 39.6446 43.8127 39.6975C43.9448 39.7504 44.0861 39.7762 44.2283 39.7733Z" fill="black"/>
<path id="Vector_3" d="M43.062 44.0002H45.3957L44.9048 40.1367C44.4638 40.2506 44.0011 40.2506 43.5601 40.1367L43.062 44.0002Z" fill="black"/>
<path id="Vector_4" d="M46.491 43.9984H48.3836V40.6544C48.3836 39.8362 48.782 39.331 49.5504 39.331C50.3188 39.331 50.6675 39.7508 50.6675 40.6544V43.9984H52.5316V40.1848C52.5316 38.5199 51.6991 37.6661 50.2761 37.6661C49.9055 37.65 49.5369 37.7292 49.2056 37.8961C48.8742 38.063 48.5912 38.3121 48.3836 38.6195V38.2211C48.389 38.1627 48.3816 38.1039 48.3617 38.0487C48.3419 37.9936 48.3101 37.9435 48.2686 37.902C48.2272 37.8606 48.1771 37.8288 48.1219 37.8089C48.0668 37.789 48.0079 37.7816 47.9495 37.7871H46.5265L46.491 43.9984Z" fill="#F4333D"/>
<path id="Vector_5" d="M58.6285 37.7884C58.5702 37.7829 58.5113 37.7903 58.4562 37.8102C58.401 37.8301 58.3509 37.8619 58.3095 37.9033C58.268 37.9448 58.2362 37.9949 58.2164 38.05C58.1965 38.1052 58.189 38.164 58.1945 38.2224V38.5995C57.9875 38.2945 57.705 38.0484 57.3746 37.8851C57.0442 37.7218 56.6771 37.6468 56.3091 37.6674C55.5431 37.7411 54.832 38.0975 54.3146 38.6671C53.7972 39.2367 53.5105 39.9787 53.5105 40.7482C53.5105 41.5177 53.7972 42.2597 54.3146 42.8293C54.832 43.3989 55.5431 43.7553 56.3091 43.829C56.665 43.8514 57.0211 43.7897 57.3487 43.6487C57.6763 43.5078 57.9661 43.2917 58.1945 43.0179V43.4305C58.1949 43.6255 58.1553 43.8184 58.0781 43.9973C58.0009 44.1763 57.8877 44.3375 57.7456 44.4709C57.6035 44.6043 57.4355 44.7071 57.252 44.773C57.0686 44.8388 56.8735 44.8662 56.679 44.8535C55.9804 44.8671 55.3031 44.6125 54.7865 44.142L53.8117 45.565C54.6421 46.1926 55.6682 46.5052 56.7075 46.4473C58.5716 46.4473 60.0871 45.5152 60.0871 43.1744V37.7884H58.6285ZM56.8071 42.1854C56.5257 42.1854 56.2506 42.102 56.0165 41.9456C55.7825 41.7892 55.6001 41.567 55.4924 41.307C55.3847 41.047 55.3566 40.7608 55.4115 40.4848C55.4664 40.2088 55.6019 39.9552 55.8009 39.7562C55.9999 39.5572 56.2535 39.4217 56.5295 39.3668C56.8055 39.3119 57.0917 39.34 57.3517 39.4478C57.6117 39.5555 57.8339 39.7378 57.9903 39.9719C58.1466 40.2059 58.2301 40.481 58.2301 40.7624C58.2301 41.1398 58.0802 41.5018 57.8133 41.7686C57.5465 42.0355 57.1845 42.1854 56.8071 42.1854Z" fill="#F4333D"/>
<path id="Vector_6" d="M65.2961 37.6663C64.9166 37.6495 64.5386 37.7257 64.1952 37.8881C63.8517 38.0505 63.5531 38.2944 63.3253 38.5984V38.2213C63.3308 38.1629 63.3233 38.1041 63.3034 38.0489C63.2836 37.9938 63.2518 37.9437 63.2103 37.9022C63.1689 37.8608 63.1188 37.829 63.0636 37.8091C63.0085 37.7893 62.9496 37.7818 62.8913 37.7873H61.4683V46.2755H63.3253V43.3156C63.5726 43.59 63.8775 43.8063 64.2183 43.949C64.559 44.0917 64.9271 44.1573 65.2961 44.141C65.7031 44.1306 66.1037 44.0375 66.4736 43.8675C66.8435 43.6974 67.1749 43.4539 67.4478 43.1518C67.7206 42.8497 67.9292 42.4952 68.0608 42.1099C68.1924 41.7247 68.2443 41.3167 68.2133 40.9108C68.2463 40.5037 68.1959 40.0942 68.0653 39.7073C67.9346 39.3203 67.7264 38.9641 67.4533 38.6604C67.1802 38.3567 66.8481 38.1119 66.4772 37.941C66.1063 37.7701 65.7044 37.6766 65.2961 37.6663V37.6663ZM64.7981 42.4832C64.4801 42.496 64.1657 42.4133 63.8951 42.2458C63.6246 42.0783 63.4104 41.8337 63.2801 41.5434C63.1498 41.2531 63.1093 40.9304 63.164 40.617C63.2186 40.3035 63.3658 40.0136 63.5867 39.7845C63.8075 39.5555 64.0919 39.3977 64.4032 39.3317C64.7144 39.2656 65.0383 39.2942 65.3332 39.4139C65.628 39.5335 65.8803 39.7386 66.0576 40.0029C66.2348 40.2671 66.329 40.5784 66.3278 40.8965C66.3385 41.1029 66.3068 41.3093 66.2344 41.5029C66.1621 41.6965 66.0508 41.8731 65.9073 42.0219C65.7639 42.1707 65.5914 42.2884 65.4006 42.3677C65.2098 42.4471 65.0047 42.4864 64.7981 42.4832V42.4832Z" fill="#F4333D"/>
<path id="Vector_7" d="M74.3673 37.7881C74.3089 37.7826 74.2501 37.7901 74.1949 37.8099C74.1397 37.8298 74.0897 37.8616 74.0482 37.903C74.0068 37.9445 73.975 37.9946 73.9551 38.0497C73.9352 38.1049 73.9278 38.1637 73.9333 38.2221V38.5992C73.702 38.29 73.3977 38.043 73.0475 37.8803C72.6973 37.7176 72.3123 37.6444 71.9268 37.6671C71.5199 37.6775 71.1193 37.7706 70.7494 37.9406C70.3795 38.1107 70.048 38.3542 69.7752 38.6563C69.5023 38.9584 69.2937 39.3129 69.1622 39.6982C69.0306 40.0834 68.9787 40.4914 69.0097 40.8973C68.9787 41.3033 69.0306 41.7113 69.1622 42.0965C69.2937 42.4818 69.5023 42.8362 69.7752 43.1384C70.048 43.4405 70.3795 43.684 70.7494 43.854C71.1193 44.0241 71.5199 44.1171 71.9268 44.1275C72.312 44.1484 72.6965 44.0743 73.0463 43.9118C73.3962 43.7493 73.7007 43.5033 73.9333 43.1955V43.9995H75.7974V37.7881H74.3673ZM72.4249 42.484C72.0215 42.457 71.6435 42.2777 71.3673 41.9825C71.0912 41.6872 70.9376 41.298 70.9376 40.8938C70.9376 40.4895 71.0912 40.1004 71.3673 39.8051C71.6435 39.5099 72.0215 39.3306 72.4249 39.3036C72.8282 39.3306 73.2063 39.5099 73.4824 39.8051C73.7586 40.1004 73.9122 40.4895 73.9122 40.8938C73.9122 41.298 73.7586 41.6872 73.4824 41.9825C73.2063 42.2777 72.8282 42.457 72.4249 42.484Z" fill="#F4333D"/>
<path id="Vector_8" d="M79.5696 44.1422C81.1491 44.1422 82.1096 43.3169 82.1096 42.0077C82.1096 41.1113 81.5618 40.4994 80.4305 40.2504L79.3277 40.0013C78.9008 39.9017 78.6802 39.7665 78.6802 39.5175C78.6802 39.2685 78.8865 39.112 79.3917 39.112C79.9773 39.1324 80.5368 39.3592 80.9712 39.7523L81.9033 38.3862C81.17 37.8733 80.2851 37.6226 79.3917 37.6747C77.9118 37.6747 76.9157 38.3862 76.9157 39.6456C76.906 40.0926 77.0643 40.527 77.3594 40.863C77.6545 41.1989 78.0649 41.4119 78.5095 41.4599L79.6123 41.7231C80.1601 41.8441 80.3238 42.0078 80.3238 42.2212C80.3238 42.4346 80.0961 42.641 79.6123 42.641C78.9164 42.6273 78.2462 42.3763 77.7126 41.9295L76.7805 43.2956C77.5966 43.9132 78.6044 44.2231 79.6265 44.1707L79.5696 44.1422Z" fill="#F4333D"/>
<path id="Vector_9" d="M85.46 44.1427C87.0395 44.1427 88 43.3173 88 42.0082C88 41.1117 87.4522 40.4998 86.3209 40.2508L85.2109 40.0017C84.7912 39.9021 84.5706 39.767 84.5706 39.5179C84.5706 39.2689 84.7769 39.1124 85.2821 39.1124C85.8657 39.132 86.4232 39.359 86.8545 39.7527L87.7866 38.3866C87.0567 37.8721 86.1735 37.6212 85.2821 37.6752C83.8022 37.6752 82.8061 38.3866 82.8061 39.646C82.7964 40.093 82.9547 40.5274 83.2498 40.8634C83.5449 41.1993 83.9553 41.4123 84.3998 41.4603L85.5027 41.7236C86.0505 41.8445 86.2142 42.0082 86.2142 42.2216C86.2142 42.4351 85.9936 42.6414 85.5027 42.6414C84.8068 42.6277 84.1366 42.3767 83.603 41.9299L82.6709 43.296C83.487 43.9136 84.4948 44.2235 85.5169 44.1711L85.46 44.1427Z" fill="#F4333D"/>
</g>
</g>
<path id="with" d="M20.75 38.42L19.32 44H17.41L16.4 40.26L15.38 44H13.47L12.04 38.42H13.75L14.49 42.44L15.53 38.42H17.35L18.42 42.45L19.16 38.42H20.75ZM21.2093 36.85C21.2093 36.59 21.3026 36.3767 21.4893 36.21C21.676 36.0367 21.9226 35.95 22.2293 35.95C22.536 35.95 22.7826 36.0367 22.9693 36.21C23.156 36.3767 23.2493 36.59 23.2493 36.85C23.2493 37.1033 23.156 37.3167 22.9693 37.49C22.7826 37.6567 22.536 37.74 22.2293 37.74C21.9226 37.74 21.676 37.6567 21.4893 37.49C21.3026 37.3167 21.2093 37.1033 21.2093 36.85ZM23.0793 38.42V44H21.3693V38.42H23.0793ZM27.4199 42.53V44H26.6499C25.9966 44 25.4866 43.84 25.1199 43.52C24.7599 43.1933 24.5799 42.6567 24.5799 41.91V39.86H23.8299V38.42H24.5799V37.05H26.2899V38.42H27.4099V39.86H26.2899V41.94C26.2899 42.16 26.3333 42.3133 26.4199 42.4C26.5133 42.4867 26.6666 42.53 26.8799 42.53H27.4199ZM31.921 38.36C32.561 38.36 33.0677 38.5733 33.441 39C33.821 39.4267 34.011 40.0133 34.011 40.76V44H32.301V40.96C32.301 40.5867 32.201 40.2967 32.001 40.09C31.8077 39.8767 31.5477 39.77 31.221 39.77C30.8743 39.77 30.5977 39.88 30.391 40.1C30.191 40.32 30.091 40.6333 30.091 41.04V44H28.381V36.6H30.091V39.44C30.251 39.1067 30.4877 38.8433 30.801 38.65C31.121 38.4567 31.4943 38.36 31.921 38.36Z" fill="black"/>
</g>
<path d="M8 2H171V-2H8V2ZM177 8V52H181V8H177ZM171 58H8V62H171V58ZM2 52V8H-2V52H2ZM8 58C4.68629 58 2 55.3137 2 52H-2C-2 57.5228 2.47716 62 8 62V58ZM177 52C177 55.3137 174.314 58 171 58V62C176.523 62 181 57.5228 181 52H177ZM171 2C174.314 2 177 4.68629 177 8H181C181 2.47715 176.523 -2 171 -2V2ZM8 -2C2.47715 -2 -2 2.47715 -2 8H2C2 4.68629 4.68629 2 8 2V-2Z" fill="#CECDD2"/>
</g>
</svg>
